<svg width="50mm" height="50mm" version="1.1" viewBox="0 0 188.97638 188.97638" xmlns="http://www.w3.org/2000/svg">
 <path d="m77.592205 149.11219v-94.464003l-35.328 1.536v9.024c3.264 0 7.488 0 10.368 0.384 4.224 0.768 4.224 3.264 4.224 7.296v76.224003c0 9.6-2.88 23.424-14.4 23.424-3.072 0-4.608-0.384-7.488-1.152 3.648-2.688 4.608-6.72 4.608-9.6 0-6.72-4.992-11.904-11.904-11.904-7.296 0-12.096 5.184-12.096 12.096 0 10.944 11.52 17.472 27.264 17.472 16.512 0 34.752-9.984 34.752-30.336zm0-124.608003c0-8.256-6.72-14.9759997-14.976-14.9759997s-14.976 6.7199997-14.976 14.9759997 6.72 14.976 14.976 14.976 14.976-6.72 14.976-14.976zm95.807965 89.664003c0-8.256-3.84-14.976003-10.56-20.352003-7.488-5.568-13.632-6.72-28.608-9.216-7.104-1.344-19.584-3.456-19.584-12.48 0-11.904 17.856-11.904 21.504-11.904 14.4 0 21.696 5.568 22.656 16.128 0.192 2.88 0.384 3.84 4.416 3.84 4.608 0 4.608-0.96 4.608-5.376v-15.36c0-3.648 0-5.376-3.456-5.376-0.768 0-1.152 0-8.64 3.648-4.992-2.496-11.712-3.648-19.392-3.648-5.76 0-35.328 0-35.328 25.152 0 7.68 3.84 12.864 7.68 16.128 7.68 6.720003 14.976 7.872003 29.76 10.560003 6.912 1.152 21.312 3.648 21.312 14.976 0 14.4-17.664 14.4-21.888 14.4-20.352 0-25.344-14.016-27.648-22.272-0.96-2.688-1.92-2.688-4.608-2.688-4.608 0-4.608 1.152-4.608 5.568v20.928c0 3.648 0 5.376 3.456 5.376 1.344 0 1.728 0 5.76-2.88l4.992-3.264c8.832 6.144 18.816 6.144 22.656 6.144 5.952 0 35.52 0 35.52-28.032z" fill="#fff" stroke="#000" stroke-width="1.88976" aria-label="js"/>
</svg>
